<?xml version="1.0" encoding="utf-8"?>
<!-- Svg Vector Icons : http://www.onlinewebfonts.com/icon -->
<!DOCTYPE svg PUBLIC "-//W3C//DTD SVG 1.1//EN" "http://www.w3.org/Graphics/SVG/1.1/DTD/svg11.dtd">
<svg version="1.1" xmlns="http://www.w3.org/2000/svg" xmlns:xlink="http://www.w3.org/1999/xlink" x="0px" y="0px" viewBox="0 0 256 256" enable-background="new 0 0 256 256" xml:space="preserve">
<metadata> Svg Vector Icons : http://www.onlinewebfonts.com/icon </metadata>
<g><g><g><g><g><path fill="#000000" d="M116.6 45L128 39.1 139.4 45 137.2 32.4 146.4 23.4 133.7 21.5 128 10 122.3 21.5 109.6 23.4 118.8 32.4 z"/></g><g><g><path fill="#000000" d="M175.2 99.2L179.3 99.2 128 47.9 95.3 80.6 z"/></g><g><path fill="#000000" d="M173.9,138.5l-9.6,1.7c1.6,0.9,2.7,2.6,2.7,4.5c0,2.9-2.4,5.3-5.3,5.3c-3,0-5.3-2.4-5.3-5.3c0-1.3,0.5-2.4,1.3-3.3l-16.6,3c4.1,0.4,7.3,3.7,7.3,7.9c0,4.4-3.6,8-8,8c-4.4,0-8-3.6-8-8c0-3.2,1.9-5.8,4.5-7.1l-21,3.7c1.4,0.7,2.5,2.2,2.5,3.9c0,2.5-2,4.5-4.5,4.5c-2.5,0-4.4-2-4.4-4.5c0-1.2,0.5-2.2,1.2-3l-48.3,8.5l-12.1,12.1l132.5,9.7l-7.1-7.1h32.7L173.9,138.5z"/></g><g><path fill="#000000" d="M87.9,132.8l-15.3,15.4l117-20.8l-21.3-21.3l-31.2-7.2c1.8,1.7,2.9,4.1,2.9,6.8c0,5.2-4.2,9.4-9.4,9.4c-5.2,0-9.4-4.2-9.4-9.4c0-4.2,2.8-7.8,6.6-8.9l-16-3.7c0.6,1,1,2,1,3.3c0,3.6-3,6.6-6.6,6.6c-3.6,0-6.6-3-6.6-6.6c0-2.3,1.3-4.2,3-5.4l-14.3-3.3L76.7,99.2h17.9L61,132.8H87.9L87.9,132.8z"/></g><g><path fill="#000000" d="M214.9,212.3l-23.2-23.2l-23-1.7c1.3,1.3,2,3,2,4.9c0,3.9-3.2,7.1-7.1,7.1c-3.9,0-7.1-3.2-7.1-7.1c0-2.3,1.2-4.3,3-5.6l-39.3-2.9c1,1,1.6,2.4,1.6,3.9c0,3.1-2.5,5.5-5.5,5.5c-3.1,0-5.5-2.5-5.5-5.5c0-1.8,0.9-3.4,2.3-4.4L93.9,182c2.6,1.5,4.4,4.3,4.4,7.6c0,4.9-3.9,8.8-8.8,8.8c-4.9,0-8.8-4-8.8-8.8c0-3.7,2.2-6.8,5.4-8.1l-13.2-1l-31.9,31.9h76.4l-6.1,33.7h33.2l-6.1-33.7L214.9,212.3L214.9,212.3z"/></g></g></g></g><g></g><g></g><g></g><g></g><g></g><g></g><g></g><g></g><g></g><g></g><g></g><g></g><g></g><g></g><g></g></g></g>
</svg>